<svg width="30" height="31" viewBox="0 0 30 31" fill="none" xmlns="http://www.w3.org/2000/svg">
<rect width="30" height="31" rx="9" fill="black"/>
<path d="M24.375 15.7368C24.375 15.0695 24.3125 14.3806 24.2083 13.7347H15.1874V17.5452H20.3541C20.1458 18.7723 19.4583 19.8487 18.4374 20.5376L21.5208 23.0133C23.3333 21.2695 24.375 18.7292 24.375 15.7368Z" fill="#EDB021"/>
<path d="M15.1874 25.3814C17.7708 25.3814 19.9374 24.4987 21.5208 22.9918L18.4374 20.5376C17.5832 21.1404 16.4791 21.4848 15.1874 21.4848C12.6874 21.4848 10.5832 19.741 9.81233 17.416L6.64563 19.9348C8.27065 23.2716 11.5623 25.3814 15.1874 25.3814Z" fill="#EDB021"/>
<path d="M9.81234 17.3945C9.4165 16.1674 9.4165 14.8326 9.81234 13.6056L6.64564 11.0652C5.29146 13.8639 5.29146 17.1577 6.64564 19.9348L9.81234 17.3945Z" fill="#EDB021"/>
<path d="M15.1874 9.53676C16.5416 9.51523 17.8749 10.0534 18.8541 11.0222L21.5833 8.18049C19.8541 6.50131 17.5624 5.59713 15.1874 5.61866C11.5624 5.61866 8.27065 7.72841 6.64563 11.0652L9.81233 13.6056C10.5832 11.259 12.6874 9.53676 15.1874 9.53676Z" fill="#EDB021"/>
</svg>
