<svg width="30" height="31" viewBox="0 0 30 31" fill="none" xmlns="http://www.w3.org/2000/svg">
<rect width="30" height="31" rx="9" fill="black"/>
<path d="M25.875 15.5C25.875 21.7249 20.9946 26.75 15 26.75C9.0054 26.75 4.125 21.7249 4.125 15.5C4.125 9.27511 9.0054 4.25 15 4.25C20.9946 4.25 25.875 9.27511 25.875 15.5Z" stroke="#EDB021" stroke-width="0.75"/>
<path fill-rule="evenodd" clip-rule="evenodd" d="M21.0459 10.0497L18.8285 21.6071C18.8285 21.6071 18.5179 22.4093 17.6639 22.0233L14.444 19.4718L14.5051 19.5213L12.4817 21.4316C12.4817 21.4316 12.3215 21.557 12.1517 21.4767L12.2596 20.4916L12.5593 17.8716C12.5593 17.8716 18.2365 12.5969 18.4694 12.3712C18.7023 12.1506 18.6247 12.1005 18.6247 12.1005C18.6441 11.8297 18.2074 12.1005 18.2074 12.1005L10.6815 17.0393C10.6815 17.0393 10.6815 17.0393 10.6815 17.0393L10.6814 17.0393L7.54686 15.9513C7.54686 15.9513 7.06649 15.7758 7.01796 15.3897C6.96944 15.0036 7.56142 14.798 7.56142 14.798L20.0221 9.7489C20.0221 9.74389 21.0459 9.27758 21.0459 10.0497Z" fill="#EDB021"/>
</svg>
