<svg width="30" height="31" viewBox="0 0 30 31" fill="none" xmlns="http://www.w3.org/2000/svg">
<g clip-path="url(#clip0_181_1867)">
<rect width="30" height="31" rx="9" fill="black"/>
<path d="M12.006 30.062C12.006 30.4742 11.5312 31.0218 10.7812 30.8789V31L20.3906 31.0017V30.8118C19.6294 30.9647 19.4423 30.4786 19.4423 30.0623C19.4423 29.5515 19.461 27.8739 19.461 25.7935C19.461 24.3413 18.981 23.3922 18.4429 22.9117C21.7842 22.5266 25.2914 21.2106 25.2914 15.2331C25.2914 13.5339 24.711 12.1452 23.7492 11.0568C23.9039 10.663 24.4185 9.08156 23.6001 6.93893C23.6001 6.93893 22.3429 6.52067 19.4798 8.53398C18.2817 8.18862 16.9982 8.01642 15.7242 8.00964C14.4482 8.01666 13.1657 8.18862 11.9685 8.53398C9.10354 6.52067 7.84354 6.93893 7.84354 6.93893C7.02792 9.08156 7.5426 10.663 7.69729 11.0568C6.73729 12.1452 6.15323 13.5339 6.15323 15.2331C6.15323 21.196 9.65479 22.5305 12.9857 22.9233C12.5573 23.3123 12.1692 23.9981 12.0332 25.0037C11.1782 25.4026 9.00604 26.0892 7.66729 23.7111C7.66729 23.7111 6.8751 22.2173 5.37042 22.1074C5.37042 22.1074 3.9051 22.0878 5.26729 23.0536C5.26729 23.0536 6.25073 23.5322 6.93229 25.3294C6.93229 25.3294 7.8126 28.3561 11.9854 27.4156C11.9929 28.714 12.006 29.6924 12.006 30.062Z" fill="#EDB021"/>
</g>
<defs>
<clipPath id="clip0_181_1867">
<rect width="30" height="31" rx="9" fill="white"/>
</clipPath>
</defs>
</svg>
